<?xml version="1.0" encoding="utf-8"?>
<!-- Generator: Adobe Illustrator 23.1.1, SVG Export Plug-In . SVG Version: 6.00 Build 0)  -->
<svg version="1.1" id="Layer_1" xmlns="http://www.w3.org/2000/svg" xmlns:xlink="http://www.w3.org/1999/xlink" x="0px" y="0px"
	 viewBox="0 0 450 450" style="enable-background:new 0 0 450 450;" xml:space="preserve">
<style type="text/css">
	.st0{fill:#414042;}
</style>
<g id="XMLID_1_">
	<path id="XMLID_14_" class="st0" d="M220.5,1h32.8c60.1,5.6,117,39,149,90.5c46.2,70.3,39.8,170.7-16.3,233.6
		c-15.6,18.1-47.4,13.6-57-8.5c-15.7-34.3-28.2-70.1-43-104.8c-14,33.5-26.4,67.8-40.9,101.2c-6.3,17.8-27.8,29.3-45.6,21.1
		c-13.5-5-19.8-18.9-24.9-31.2c-19.9-50.2-40.4-100.3-60.6-150.5c16.4-0.1,32.7,0,49.1-0.1c16.4,40.4,32.6,80.9,49.1,121.2
		c12.3-30.3,24.4-60.7,36.4-91.1c5.4-13.7,12.5-29,27.8-33.7c16.9-6.3,35.1,5.7,41.5,21.2c16.2,36.6,29.7,74.4,45.4,111.2
		c15.9-27.1,25.9-58.1,24.2-89.8c-1.7-69.8-58.2-133.4-127.4-143c-82.3-12.4-166,44-189.7,122.9c-23.2,69.9,3.2,151.8,62,195.8
		c42.5,34.2,100.9,45.2,153.2,30.1c-0.1,15.6-0.1,31.2-0.1,46.8c-9.8,1.7-19.5,3.6-29.3,5.1h-33.5c-56.4-5.4-110.9-31.1-148.5-73.9
		C41,338.6,22.2,290.7,17,241.9v-32.1c4.6-49.5,23.7-98.1,57.4-135C111.4,32.5,165.1,7.2,220.5,1z"/>
</g>
</svg>
