<?xml version="1.0" encoding="utf-8"?>
<!-- Generator: Adobe Illustrator 25.3.1, SVG Export Plug-In . SVG Version: 6.00 Build 0)  -->
<svg version="1.1" id="Camada_1" xmlns="http://www.w3.org/2000/svg" xmlns:xlink="http://www.w3.org/1999/xlink" x="0px" y="0px"
	 viewBox="0 0 205.1 334.9" style="enable-background:new 0 0 205.1 334.9;" xml:space="preserve">
<style type="text/css">
	.st0{fill:#FF0035;}
</style>
<g>
	<path class="st0" d="M174.3,229.9V125.6c0-39.1-39.1-48.6-73.5-48.6c-32,0-69.9,8.3-73.5,60.5h43.9c4.7-15.4,7.1-23.7,29.6-24.9
		c11.9,1.2,28.5,1.2,28.5,19c0,11.9-13,16.6-28.5,17.8l0,0c-36.8,3.6-79.4,8.3-79.4,59.3c0,34.4,22.5,52.2,54.5,52.2
		c21.3,0,40.3-10.7,54.5-26.1c1.2,7.1,1.2,14.2,3.6,20.2h49.8v-7.1C176.6,243,174.3,239.4,174.3,229.9z M90.1,227.5
		c-14.2,0-21.3-5.9-22.5-21.3c0-30.8,43.9-22.5,62.8-35.6C131.6,212.1,123.3,221.6,90.1,227.5z"/>
	<g>
		<rect class="st0" width="205.1" height="42.7"/>
		<rect y="292.3" class="st0" width="205.1" height="42.7"/>
	</g>
</g>
</svg>
